<svg width="165" height="40" viewBox="0 0 165 40" fill="none" xmlns="http://www.w3.org/2000/svg">
<rect x="80" width="85" height="40" rx="10" fill="black"/>
<path d="M12.3576 17.7054C13.54 17.9551 14.4899 18.5409 15.2071 19.4628C15.9243 20.3656 16.2829 21.4027 16.2829 22.5744C16.2829 24.2646 15.682 25.6091 14.4802 26.6078C13.2977 27.5874 11.6403 28.0771 9.50806 28.0771H0V7.85224H9.18821C11.2623 7.85224 12.8809 8.32281 14.044 9.26395C15.2265 10.2051 15.8177 11.4824 15.8177 13.0957C15.8177 14.2866 15.4978 15.2757 14.8582 16.0632C14.2379 16.8507 13.4043 17.3981 12.3576 17.7054ZM4.9721 16.0344H8.22869C9.04283 16.0344 9.66313 15.8615 10.0896 15.5158C10.5354 15.1509 10.7584 14.6227 10.7584 13.9312C10.7584 13.2398 10.5354 12.7116 10.0896 12.3467C9.66313 11.9817 9.04283 11.7993 8.22869 11.7993H4.9721V16.0344ZM8.63576 24.1013C9.46929 24.1013 10.109 23.9188 10.5548 23.5539C11.02 23.1698 11.2527 22.6224 11.2527 21.9117C11.2527 21.2011 11.0103 20.6441 10.5257 20.2407C10.0605 19.8374 9.41113 19.6357 8.57761 19.6357H4.9721V24.1013H8.63576Z" fill="black"/>
<path d="M24.1388 6.75745V28.0771H19.1667V6.75745H24.1388Z" fill="black"/>
<path d="M35.1275 28.3076C33.538 28.3076 32.1036 27.9715 30.8242 27.2993C29.5642 26.627 28.5659 25.6667 27.8293 24.4182C27.1121 23.1698 26.7535 21.71 26.7535 20.039C26.7535 18.3872 27.1218 16.9371 27.8584 15.6887C28.595 14.421 29.603 13.4511 30.8823 12.7788C32.1617 12.1066 33.5961 11.7705 35.1857 11.7705C36.7752 11.7705 38.2096 12.1066 39.489 12.7788C40.7684 13.4511 41.7764 14.421 42.513 15.6887C43.2496 16.9371 43.6179 18.3872 43.6179 20.039C43.6179 21.6908 43.2399 23.1506 42.4839 24.4182C41.7473 25.6667 40.7296 26.627 39.4309 27.2993C38.1515 27.9715 36.717 28.3076 35.1275 28.3076ZM35.1275 24.0437C36.0774 24.0437 36.8818 23.698 37.5409 23.0065C38.2193 22.3151 38.5586 21.3259 38.5586 20.039C38.5586 18.7522 38.229 17.763 37.57 17.0716C36.9303 16.3801 36.1355 16.0344 35.1857 16.0344C34.2164 16.0344 33.412 16.3801 32.7723 17.0716C32.1326 17.7438 31.8128 18.733 31.8128 20.039C31.8128 21.3259 32.1229 22.3151 32.7432 23.0065C33.3829 23.698 34.1777 24.0437 35.1275 24.0437Z" fill="black"/>
<path d="M52.4199 11.7705C53.5636 11.7705 54.5619 12.0009 55.4148 12.4619C56.2871 12.9229 56.9559 13.5279 57.4211 14.277V12.0009H62.3932V28.0483C62.3932 29.5273 62.0928 30.8622 61.4918 32.053C60.9103 33.263 60.0089 34.2234 58.7877 34.934C57.5859 35.6447 56.0836 36 54.2808 36C51.8772 36 49.929 35.4334 48.4364 34.3002C46.9438 33.1862 46.0909 31.6688 45.8777 29.7481H50.7916C50.9467 30.3628 51.315 30.8429 51.8966 31.1887C52.4781 31.5536 53.1953 31.7361 54.0482 31.7361C55.0756 31.7361 55.8897 31.4384 56.4907 30.8429C57.111 30.2667 57.4211 29.3352 57.4211 28.0483V25.7723C56.9365 26.5214 56.2677 27.136 55.4148 27.6162C54.5619 28.0771 53.5636 28.3076 52.4199 28.3076C51.0824 28.3076 49.8709 27.9715 48.7854 27.2993C47.6998 26.6078 46.8372 25.6379 46.1975 24.3894C45.5772 23.1218 45.2671 21.662 45.2671 20.0102C45.2671 18.3584 45.5772 16.9083 46.1975 15.6599C46.8372 14.4114 47.6998 13.4511 48.7854 12.7788C49.8709 12.1066 51.0824 11.7705 52.4199 11.7705ZM57.4211 20.039C57.4211 18.8098 57.0722 17.8398 56.3744 17.1292C55.6959 16.4185 54.8624 16.0632 53.8738 16.0632C52.8852 16.0632 52.0419 16.4185 51.3441 17.1292C50.6656 17.8206 50.3264 18.781 50.3264 20.0102C50.3264 21.2395 50.6656 22.219 51.3441 22.9489C52.0419 23.6595 52.8852 24.0149 53.8738 24.0149C54.8624 24.0149 55.6959 23.6595 56.3744 22.9489C57.0722 22.2382 57.4211 21.2683 57.4211 20.039Z" fill="black"/>
<path d="M70.6426 24.0149H77.6791V28.0771H65.0889V24.1589L71.8347 16.0632H65.1471V12.0009H77.5337V15.9192L70.6426 24.0149Z" fill="black"/>
<path d="M93.6472 7.85223C95.7988 7.85223 97.6791 8.27478 99.288 9.11989C100.897 9.96499 102.138 11.1558 103.01 12.6924C103.902 14.2097 104.347 15.9672 104.347 17.9647C104.347 19.943 103.902 21.7004 103.01 23.237C102.138 24.7735 100.887 25.9644 99.2589 26.8095C97.65 27.6546 95.7794 28.0771 93.6472 28.0771H86V7.85223H93.6472ZM93.3273 23.8132C95.2076 23.8132 96.6711 23.3042 97.7179 22.2862C98.7646 21.2683 99.288 19.8278 99.288 17.9647C99.288 16.1016 98.7646 14.6515 97.7179 13.6143C96.6711 12.5771 95.2076 12.0585 93.3273 12.0585H90.9721V23.8132H93.3273Z" fill="white"/>
<path d="M106.137 20.0102C106.137 18.3584 106.448 16.9083 107.068 15.6599C107.708 14.4114 108.57 13.4511 109.656 12.7788C110.741 12.1066 111.953 11.7704 113.29 11.7704C114.434 11.7704 115.432 12.0009 116.285 12.4619C117.157 12.9229 117.826 13.5279 118.291 14.277V12.0009H123.264V28.0771H118.291V25.8011C117.807 26.5502 117.128 27.1552 116.256 27.6162C115.403 28.0771 114.405 28.3076 113.261 28.3076C111.943 28.3076 110.741 27.9715 109.656 27.2993C108.57 26.6078 107.708 25.6379 107.068 24.3894C106.448 23.1217 106.137 21.662 106.137 20.0102ZM118.291 20.039C118.291 18.8098 117.942 17.8398 117.245 17.1292C116.566 16.4185 115.733 16.0632 114.744 16.0632C113.755 16.0632 112.912 16.4185 112.214 17.1292C111.536 17.8206 111.197 18.781 111.197 20.0102C111.197 21.2395 111.536 22.219 112.214 22.9489C112.912 23.6595 113.755 24.0149 114.744 24.0149C115.733 24.0149 116.566 23.6595 117.245 22.9489C117.942 22.2382 118.291 21.2683 118.291 20.039Z" fill="white"/>
<path d="M129.361 10.3299C128.489 10.3299 127.772 10.0802 127.21 9.58086C126.667 9.06227 126.395 8.42844 126.395 7.67937C126.395 6.91109 126.667 6.27726 127.21 5.77788C127.772 5.25929 128.489 5 129.361 5C130.214 5 130.912 5.25929 131.455 5.77788C132.017 6.27726 132.298 6.91109 132.298 7.67937C132.298 8.42844 132.017 9.06227 131.455 9.58086C130.912 10.0802 130.214 10.3299 129.361 10.3299ZM131.833 12.0009V28.0771H126.861V12.0009H131.833Z" fill="white"/>
<path d="M140.408 6.75744V28.0771H135.436V6.75744H140.408Z" fill="white"/>
<path d="M160.585 12.0009L150.408 35.7119H145.058L148.78 27.5297L142.179 12.0009H147.733L151.484 22.0558L155.206 12.0009H160.585Z" fill="white"/>
</svg>
